<?xml version="1.0" encoding="UTF-8"?>
<svg xmlns="http://www.w3.org/2000/svg" xmlns:xlink="http://www.w3.org/1999/xlink" width="127px" height="127px" viewBox="0 0 127 127" version="1.1">
<g id="surface1">
<path style=" stroke:none;fill-rule:nonzero;fill:rgb(47.058824%,20.784314%,5.882353%);fill-opacity:1;" d="M 69.089844 127.253906 C 46.058594 127.253906 23.15625 127.253906 0.253906 127.253906 C 0.253906 84.921875 0.253906 42.585938 0.253906 0.253906 C 42.585938 0.253906 84.921875 0.253906 127.253906 0.253906 C 127.253906 42.585938 127.253906 84.921875 127.253906 127.253906 C 107.90625 127.253906 88.5625 127.253906 69.089844 127.253906 M 79.984375 67.226562 C 80.273438 67.082031 80.59375 66.980469 80.84375 66.785156 C 81.101562 66.578125 81.289062 66.28125 81.507812 66.027344 C 81.382812 65.917969 81.261719 65.8125 81.136719 65.707031 C 80.660156 65.996094 80.183594 66.28125 79.730469 66.382812 C 79.578125 66.207031 79.425781 66.027344 79.273438 65.851562 C 79.082031 66.078125 78.757812 66.289062 78.730469 66.53125 C 78.65625 67.195312 78.734375 67.875 78.699219 68.546875 C 78.65625 69.359375 79.027344 69.484375 79.710938 69.226562 C 79.757812 68.597656 79.804688 67.972656 79.984375 67.226562 M 88.242188 66.304688 C 87.949219 66.164062 87.660156 65.945312 87.359375 65.921875 C 87.246094 65.910156 86.996094 66.347656 86.984375 66.59375 C 86.9375 67.464844 86.964844 68.339844 86.964844 69.164062 C 87.882812 69.53125 88.121094 69.25 88.167969 68.4375 C 88.203125 67.808594 88.503906 67.195312 88.886719 66.574219 C 90.078125 66.738281 89.792969 67.683594 89.820312 68.417969 C 89.84375 69.144531 90.015625 69.542969 90.945312 69.148438 C 90.945312 68.46875 90.945312 67.765625 91.121094 66.9375 C 91.910156 66.304688 92.347656 66.617188 92.535156 67.488281 C 92.605469 67.8125 92.589844 68.15625 92.582031 68.492188 C 92.558594 69.351562 92.933594 69.5 93.710938 69.136719 C 93.664062 68.394531 93.6875 67.675781 93.570312 66.976562 C 93.351562 65.703125 92.375 65.351562 91.347656 66.132812 C 91.121094 66.300781 90.886719 66.464844 90.625 66.4375 C 89.917969 65.414062 89.183594 65.546875 88.242188 66.304688 M 85.113281 69.023438 C 85.40625 69.140625 85.699219 69.261719 86.050781 69.402344 C 86.167969 66.613281 85.871094 65.953125 84.527344 65.769531 C 83.082031 65.570312 82.359375 65.847656 82.148438 66.683594 C 84.464844 66.5 84.464844 66.5 84.679688 67.347656 C 83.980469 67.433594 83.253906 67.433594 82.59375 67.640625 C 82.300781 67.734375 81.9375 68.253906 81.960938 68.546875 C 81.984375 68.84375 82.472656 69.347656 82.726562 69.328125 C 83.519531 69.277344 84.300781 69.019531 85.113281 69.023438 M 69.957031 69.25 C 70.574219 69.445312 70.945312 69.34375 70.816406 68.570312 C 70.757812 68.199219 70.847656 67.769531 70.6875 67.457031 C 70.390625 66.878906 70.023438 65.988281 69.570312 65.910156 C 68.695312 65.761719 67.738281 66.085938 66.8125 66.21875 C 66.839844 66.40625 66.867188 66.59375 66.890625 66.757812 C 67.890625 66.769531 69.019531 65.765625 69.394531 67.339844 C 68.8125 67.394531 68.179688 67.328125 67.660156 67.539062 C 67.234375 67.710938 66.945312 68.207031 66.59375 68.5625 C 67 68.851562 67.390625 69.34375 67.820312 69.382812 C 68.484375 69.445312 69.175781 69.191406 69.957031 69.25 M 32.417969 57.34375 C 32.777344 56.902344 33.363281 56.503906 33.453125 56.015625 C 33.953125 53.335938 35.367188 52.3125 38.183594 52.414062 C 41.425781 52.535156 41.433594 52.28125 42.6875 55.3125 C 42.707031 55.363281 42.800781 55.386719 42.863281 55.421875 C 42.882812 52.644531 41.9375 51.617188 39.273438 51.558594 C 38.132812 51.535156 36.988281 51.566406 35.847656 51.511719 C 34.535156 51.445312 33.492188 51.980469 33.199219 53.210938 C 32.621094 55.636719 31.140625 56.339844 28.871094 55.917969 C 28.789062 55.902344 28.703125 55.914062 28.617188 55.914062 C 26.929688 55.960938 26.09375 56.6875 26.078125 58.394531 C 26.023438 63.386719 26.027344 68.382812 26.054688 73.375 C 26.0625 74.773438 26.878906 75.566406 28.265625 75.644531 C 30.703125 75.78125 33.164062 75.726562 35.578125 76.03125 C 39.65625 76.539062 43.429688 74.96875 47.367188 74.566406 C 47.382812 74.5625 47.382812 74.417969 47.40625 74.214844 C 45.90625 74.191406 44.4375 73.78125 42.964844 74.59375 C 42.382812 74.917969 41.570312 74.960938 40.875 74.921875 C 36.839844 74.6875 32.808594 74.375 28.773438 74.121094 C 27.910156 74.066406 27.558594 73.65625 27.582031 72.835938 C 27.605469 71.949219 27.648438 71.0625 27.648438 70.171875 C 27.65625 66.40625 27.675781 62.640625 27.636719 58.875 C 27.628906 57.839844 27.988281 57.40625 29.039062 57.441406 C 30.09375 57.480469 31.152344 57.410156 32.417969 57.34375 M 78.628906 57.492188 C 73.914062 57.0625 69.203125 56.578125 64.480469 56.222656 C 59.335938 55.835938 54.167969 55.464844 49.074219 56.664062 C 47.597656 57.015625 46.199219 57.691406 44.761719 58.21875 C 44.804688 58.320312 44.84375 58.417969 44.886719 58.519531 C 46.574219 58.066406 48.242188 57.46875 49.957031 57.179688 C 55.605469 56.230469 61.253906 56.824219 66.90625 57.269531 C 72.761719 57.734375 78.628906 58.101562 84.496094 58.367188 C 86.636719 58.464844 88.824219 58.210938 90.734375 57.015625 C 92.332031 56.015625 93.371094 54.632812 93.351562 52.671875 C 93.347656 52.367188 92.941406 52.070312 92.722656 51.769531 C 92.527344 52.039062 92.199219 52.292969 92.15625 52.585938 C 91.785156 55.109375 90.253906 56.605469 87.84375 56.90625 C 84.878906 57.277344 81.871094 57.316406 78.628906 57.492188 M 42.210938 60.992188 C 38.9375 58.75 34.933594 59.523438 32.953125 62.785156 C 31.023438 65.972656 32.144531 70.117188 35.414062 71.875 C 38.015625 73.273438 41.566406 72.699219 42.515625 70.621094 C 39.542969 71.96875 36.839844 71.941406 34.726562 69.210938 C 33.402344 67.5 33.351562 65.011719 34.628906 63.261719 C 36.765625 60.332031 39.566406 60.332031 42.847656 61.890625 C 42.558594 61.441406 42.449219 61.273438 42.210938 60.992188 M 50.242188 65.285156 C 51.402344 65.359375 52.566406 65.433594 54.09375 65.53125 C 53.703125 65.125 53.472656 64.675781 53.199219 64.644531 C 52.074219 64.523438 50.914062 64.382812 49.8125 64.554688 C 49.273438 64.636719 48.835938 65.378906 48.355469 65.824219 C 48.8125 66.238281 49.210938 66.777344 49.746094 67.035156 C 50.25 67.277344 50.914062 67.167969 51.480469 67.324219 C 51.953125 67.457031 52.378906 67.753906 52.828125 67.976562 C 52.339844 68.179688 51.847656 68.558594 51.359375 68.550781 C 50.449219 68.53125 49.542969 68.292969 48.183594 68.070312 C 48.613281 68.5625 48.816406 69.019531 49.066406 69.046875 C 50.3125 69.195312 51.585938 69.359375 52.824219 69.242188 C 53.292969 69.195312 53.695312 68.421875 54.128906 67.984375 C 53.714844 67.582031 53.367188 66.996094 52.871094 66.820312 C 52.09375 66.542969 51.207031 66.589844 50.386719 66.40625 C 49.800781 66.28125 49.265625 66 50.242188 65.285156 M 73.753906 68.5625 C 74.628906 68.90625 75.503906 69.253906 76.378906 69.601562 C 76.390625 69.671875 76.398438 69.742188 76.410156 69.816406 C 75.527344 69.816406 74.644531 69.816406 73.566406 69.816406 C 74.046875 70.929688 74.945312 70.800781 75.6875 70.816406 C 76.617188 70.832031 77.570312 70.578125 77.699219 69.496094 C 77.835938 68.308594 77.730469 67.09375 77.730469 65.882812 C 77.167969 65.949219 76.648438 66.027344 76.128906 66.066406 C 75.390625 66.121094 74.390625 65.871094 73.984375 66.257812 C 73.570312 66.652344 73.734375 67.65625 73.753906 68.5625 M 43.90625 66.378906 C 43.890625 64.574219 43.1875 63.175781 41.464844 62.457031 C 40.265625 61.953125 39.078125 61.957031 38.003906 62.863281 C 39.746094 62.46875 41.328125 62.59375 42.414062 64.191406 C 43.21875 65.367188 43.257812 66.675781 42.558594 67.90625 C 41.515625 69.742188 39.808594 69.863281 37.785156 69.351562 C 40.269531 71.234375 43.152344 69.824219 43.90625 66.378906 M 54.949219 66.757812 C 54.675781 67.679688 54.644531 68.71875 55.636719 69.035156 C 56.515625 69.316406 57.601562 69.222656 58.515625 68.984375 C 58.890625 68.886719 59.28125 67.953125 59.238281 67.433594 C 59.195312 66.914062 58.722656 66.1875 58.257812 66 C 57.140625 65.554688 55.941406 65.472656 54.949219 66.757812 M 61.164062 66.890625 C 62.066406 66.78125 62.972656 66.667969 63.867188 66.558594 C 63.71875 65.84375 62.890625 65.527344 61.421875 65.777344 C 60.308594 65.964844 59.671875 66.765625 59.808594 67.804688 C 59.964844 68.984375 60.953125 69.523438 62.660156 69.363281 C 63.714844 69.265625 63.84375 69.152344 63.804688 68.359375 C 61.515625 68.886719 60.875 68.585938 61.164062 66.890625 M 71.65625 66.207031 C 71.652344 67.003906 71.589844 67.804688 71.671875 68.589844 C 71.703125 68.890625 72.070312 69.15625 72.285156 69.4375 C 72.414062 69.371094 72.542969 69.300781 72.671875 69.230469 C 72.671875 68.144531 72.726562 67.058594 72.648438 65.976562 C 72.605469 65.40625 72.335938 64.847656 72.167969 64.285156 C 71.996094 64.847656 71.824219 65.40625 71.65625 66.207031 M 54.59375 55.039062 C 54.941406 54.996094 55.285156 54.949219 55.632812 54.90625 C 53.226562 54.417969 50.890625 54.535156 48.65625 55.570312 C 50.566406 55.398438 52.472656 55.226562 54.59375 55.039062 M 93.945312 54.1875 C 93.394531 55.277344 92.839844 56.367188 92.347656 57.332031 C 93.355469 57.109375 94.945312 55.257812 94.925781 54.070312 C 94.921875 53.851562 94.746094 53.640625 94.648438 53.425781 C 94.425781 53.617188 94.203125 53.808594 93.945312 54.1875 M 65.660156 65.953125 C 64.96875 65.675781 64.585938 66.019531 64.800781 66.632812 C 65.109375 67.511719 63.875 68.824219 65.546875 69.289062 C 65.585938 69.300781 65.660156 69.199219 65.722656 69.148438 C 65.722656 68.140625 65.722656 67.136719 65.660156 65.953125 M 43.210938 62.179688 C 43.179688 62.1875 43.148438 62.195312 43.121094 62.203125 C 43.140625 62.1875 43.160156 62.171875 43.210938 62.179688 Z M 43.210938 62.179688 "/>
<path style=" stroke:none;fill-rule:nonzero;fill:rgb(85.490196%,63.529412%,45.098039%);fill-opacity:1;" d="M 32.3125 57.367188 C 31.152344 57.410156 30.09375 57.480469 29.039062 57.441406 C 27.988281 57.40625 27.628906 57.839844 27.636719 58.875 C 27.675781 62.640625 27.65625 66.40625 27.648438 70.171875 C 27.648438 71.0625 27.605469 71.949219 27.582031 72.835938 C 27.558594 73.65625 27.910156 74.066406 28.773438 74.121094 C 32.808594 74.375 36.839844 74.6875 40.875 74.921875 C 41.570312 74.960938 42.382812 74.917969 42.964844 74.59375 C 44.4375 73.78125 45.90625 74.191406 47.40625 74.214844 C 47.382812 74.417969 47.382812 74.5625 47.367188 74.566406 C 43.429688 74.96875 39.65625 76.539062 35.578125 76.03125 C 33.164062 75.726562 30.703125 75.78125 28.265625 75.644531 C 26.878906 75.566406 26.0625 74.773438 26.054688 73.375 C 26.027344 68.382812 26.023438 63.386719 26.078125 58.394531 C 26.09375 56.6875 26.929688 55.960938 28.617188 55.914062 C 28.703125 55.914062 28.789062 55.902344 28.871094 55.917969 C 31.140625 56.339844 32.621094 55.636719 33.199219 53.210938 C 33.492188 51.980469 34.535156 51.445312 35.847656 51.511719 C 36.988281 51.566406 38.132812 51.535156 39.273438 51.558594 C 41.9375 51.617188 42.882812 52.644531 42.863281 55.425781 C 42.800781 55.386719 42.707031 55.363281 42.6875 55.3125 C 41.433594 52.28125 41.425781 52.535156 38.183594 52.414062 C 35.367188 52.3125 33.953125 53.335938 33.453125 56.015625 C 33.363281 56.503906 32.777344 56.902344 32.3125 57.367188 Z M 32.3125 57.367188 "/>
<path style=" stroke:none;fill-rule:nonzero;fill:rgb(83.921569%,61.960784%,43.529412%);fill-opacity:1;" d="M 78.753906 57.496094 C 81.871094 57.316406 84.878906 57.277344 87.84375 56.90625 C 90.253906 56.605469 91.785156 55.109375 92.15625 52.585938 C 92.199219 52.292969 92.527344 52.039062 92.722656 51.769531 C 92.941406 52.070312 93.347656 52.367188 93.351562 52.671875 C 93.371094 54.632812 92.332031 56.015625 90.734375 57.015625 C 88.824219 58.210938 86.636719 58.464844 84.496094 58.367188 C 78.628906 58.101562 72.761719 57.734375 66.90625 57.269531 C 61.253906 56.824219 55.605469 56.230469 49.957031 57.179688 C 48.242188 57.46875 46.574219 58.066406 44.886719 58.519531 C 44.84375 58.417969 44.804688 58.320312 44.761719 58.21875 C 46.199219 57.691406 47.597656 57.015625 49.074219 56.664062 C 54.167969 55.464844 59.335938 55.835938 64.480469 56.222656 C 69.203125 56.578125 73.914062 57.0625 78.753906 57.496094 Z M 78.753906 57.496094 "/>
<path style=" stroke:none;fill-rule:nonzero;fill:rgb(97.647059%,49.411765%,6.27451%);fill-opacity:1;" d="M 42.277344 61.050781 C 42.449219 61.273438 42.558594 61.441406 42.847656 61.890625 C 39.566406 60.332031 36.765625 60.332031 34.628906 63.261719 C 33.351562 65.011719 33.402344 67.5 34.726562 69.210938 C 36.839844 71.941406 39.542969 71.96875 42.515625 70.621094 C 41.566406 72.699219 38.015625 73.273438 35.414062 71.875 C 32.144531 70.117188 31.023438 65.972656 32.953125 62.785156 C 34.933594 59.523438 38.9375 58.75 42.277344 61.050781 Z M 42.277344 61.050781 "/>
<path style=" stroke:none;fill-rule:nonzero;fill:rgb(95.686275%,54.117647%,28.235294%);fill-opacity:1;" d="M 50.128906 65.316406 C 49.265625 66 49.800781 66.28125 50.386719 66.40625 C 51.207031 66.589844 52.09375 66.542969 52.871094 66.820312 C 53.367188 66.996094 53.714844 67.582031 54.128906 67.984375 C 53.695312 68.421875 53.292969 69.195312 52.824219 69.242188 C 51.585938 69.359375 50.3125 69.195312 49.066406 69.046875 C 48.816406 69.019531 48.613281 68.5625 48.183594 68.070312 C 49.542969 68.292969 50.449219 68.53125 51.359375 68.550781 C 51.847656 68.558594 52.339844 68.179688 52.828125 67.976562 C 52.378906 67.753906 51.953125 67.457031 51.480469 67.324219 C 50.914062 67.167969 50.25 67.277344 49.746094 67.035156 C 49.210938 66.777344 48.8125 66.238281 48.355469 65.824219 C 48.835938 65.378906 49.273438 64.636719 49.8125 64.554688 C 50.914062 64.382812 52.074219 64.523438 53.199219 64.644531 C 53.472656 64.675781 53.703125 65.125 54.09375 65.53125 C 52.566406 65.433594 51.402344 65.359375 50.128906 65.316406 Z M 50.128906 65.316406 "/>
<path style=" stroke:none;fill-rule:nonzero;fill:rgb(95.686275%,54.117647%,28.235294%);fill-opacity:1;" d="M 73.699219 68.476562 C 73.734375 67.65625 73.570312 66.652344 73.984375 66.257812 C 74.390625 65.871094 75.390625 66.121094 76.128906 66.066406 C 76.648438 66.027344 77.167969 65.949219 77.730469 65.882812 C 77.730469 67.09375 77.835938 68.308594 77.699219 69.496094 C 77.570312 70.578125 76.617188 70.832031 75.6875 70.816406 C 74.945312 70.800781 74.046875 70.929688 73.566406 69.816406 C 74.644531 69.816406 75.527344 69.816406 76.410156 69.816406 C 76.398438 69.742188 76.390625 69.671875 76.378906 69.601562 C 75.503906 69.253906 74.628906 68.90625 73.699219 68.476562 M 74.984375 66.625 C 74.355469 67.152344 74.210938 67.859375 74.863281 68.308594 C 75.261719 68.582031 75.988281 68.386719 76.566406 68.40625 C 76.519531 67.898438 76.609375 67.308594 76.375 66.917969 C 76.214844 66.652344 75.589844 66.664062 74.984375 66.625 Z M 74.984375 66.625 "/>
<path style=" stroke:none;fill-rule:nonzero;fill:rgb(5.098039%,2.352941%,0.784314%);fill-opacity:1;" d="M 43.902344 66.484375 C 43.152344 69.824219 40.269531 71.234375 37.785156 69.351562 C 39.808594 69.863281 41.515625 69.742188 42.558594 67.90625 C 43.257812 66.675781 43.21875 65.367188 42.414062 64.191406 C 41.328125 62.59375 39.746094 62.46875 38.003906 62.863281 C 39.078125 61.957031 40.265625 61.953125 41.464844 62.457031 C 43.1875 63.175781 43.890625 64.574219 43.902344 66.484375 Z M 43.902344 66.484375 "/>
<path style=" stroke:none;fill-rule:nonzero;fill:rgb(95.686275%,54.117647%,28.235294%);fill-opacity:1;" d="M 54.996094 66.675781 C 55.941406 65.472656 57.140625 65.554688 58.257812 66 C 58.722656 66.1875 59.195312 66.914062 59.238281 67.433594 C 59.28125 67.953125 58.890625 68.886719 58.515625 68.984375 C 57.601562 69.222656 56.515625 69.316406 55.636719 69.035156 C 54.644531 68.71875 54.675781 67.679688 54.996094 66.675781 M 55.894531 67.648438 C 55.988281 68.484375 56.519531 68.886719 57.273438 68.667969 C 57.640625 68.558594 58.09375 68.023438 58.117188 67.65625 C 58.136719 67.296875 57.730469 66.707031 57.378906 66.578125 C 56.675781 66.316406 56.058594 66.585938 55.894531 67.648438 Z M 55.894531 67.648438 "/>
<path style=" stroke:none;fill-rule:nonzero;fill:rgb(95.686275%,54.117647%,28.235294%);fill-opacity:1;" d="M 61.097656 66.972656 C 60.875 68.585938 61.515625 68.886719 63.804688 68.359375 C 63.84375 69.152344 63.714844 69.265625 62.660156 69.363281 C 60.953125 69.523438 59.964844 68.984375 59.808594 67.804688 C 59.671875 66.765625 60.308594 65.964844 61.421875 65.777344 C 62.890625 65.527344 63.71875 65.84375 63.867188 66.558594 C 62.972656 66.667969 62.066406 66.78125 61.097656 66.972656 Z M 61.097656 66.972656 "/>
<path style=" stroke:none;fill-rule:nonzero;fill:rgb(98.431373%,55.686275%,29.411765%);fill-opacity:1;" d="M 69.617188 67.316406 C 69.019531 65.765625 67.890625 66.769531 66.890625 66.757812 C 66.867188 66.59375 66.839844 66.40625 66.8125 66.21875 C 67.738281 66.085938 68.695312 65.761719 69.570312 65.910156 C 70.023438 65.988281 70.390625 66.878906 70.6875 67.457031 C 70.847656 67.769531 70.757812 68.199219 70.816406 68.570312 C 70.945312 69.34375 70.574219 69.445312 69.914062 69.058594 C 69.785156 68.351562 69.703125 67.835938 69.617188 67.316406 Z M 69.617188 67.316406 "/>
<path style=" stroke:none;fill-rule:nonzero;fill:rgb(88.235294%,49.019608%,24.705882%);fill-opacity:1;" d="M 69.507812 67.328125 C 69.703125 67.835938 69.785156 68.351562 69.863281 68.96875 C 69.175781 69.191406 68.484375 69.445312 67.820312 69.382812 C 67.390625 69.34375 67 68.851562 66.59375 68.5625 C 66.945312 68.207031 67.234375 67.710938 67.660156 67.539062 C 68.179688 67.328125 68.8125 67.394531 69.507812 67.328125 Z M 69.507812 67.328125 "/>
<path style=" stroke:none;fill-rule:nonzero;fill:rgb(95.686275%,54.117647%,28.235294%);fill-opacity:1;" d="M 84.90625 67.335938 C 84.464844 66.5 84.464844 66.5 82.148438 66.683594 C 82.359375 65.847656 83.082031 65.570312 84.527344 65.769531 C 85.871094 65.953125 86.167969 66.613281 86.050781 69.402344 C 85.699219 69.261719 85.40625 69.140625 85.101562 68.835938 C 85.027344 68.210938 84.96875 67.773438 84.90625 67.335938 Z M 84.90625 67.335938 "/>
<path style=" stroke:none;fill-rule:nonzero;fill:rgb(88.235294%,49.019608%,24.705882%);fill-opacity:1;" d="M 84.792969 67.34375 C 84.96875 67.773438 85.027344 68.210938 85.085938 68.746094 C 84.300781 69.019531 83.519531 69.277344 82.726562 69.328125 C 82.472656 69.347656 81.984375 68.84375 81.960938 68.546875 C 81.9375 68.253906 82.300781 67.734375 82.59375 67.640625 C 83.253906 67.433594 83.980469 67.433594 84.792969 67.34375 Z M 84.792969 67.34375 "/>
<path style=" stroke:none;fill-rule:nonzero;fill:rgb(94.117647%,52.941176%,27.45098%);fill-opacity:1;" d="M 90.65625 66.628906 C 90.886719 66.464844 91.121094 66.300781 91.347656 66.132812 C 92.375 65.351562 93.351562 65.703125 93.570312 66.976562 C 93.6875 67.675781 93.664062 68.394531 93.710938 69.136719 C 92.933594 69.5 92.558594 69.351562 92.582031 68.492188 C 92.589844 68.15625 92.605469 67.8125 92.535156 67.488281 C 92.347656 66.617188 91.910156 66.304688 90.992188 66.953125 C 90.792969 66.851562 90.722656 66.742188 90.65625 66.628906 Z M 90.65625 66.628906 "/>
<path style=" stroke:none;fill-rule:nonzero;fill:rgb(98.431373%,55.686275%,29.411765%);fill-opacity:1;" d="M 71.65625 66.089844 C 71.824219 65.40625 71.996094 64.847656 72.167969 64.285156 C 72.335938 64.847656 72.605469 65.40625 72.648438 65.976562 C 72.726562 67.058594 72.671875 68.144531 72.671875 69.230469 C 72.542969 69.300781 72.414062 69.371094 72.285156 69.4375 C 72.070312 69.15625 71.703125 68.890625 71.671875 68.589844 C 71.589844 67.804688 71.652344 67.003906 71.65625 66.089844 Z M 71.65625 66.089844 "/>
<path style=" stroke:none;fill-rule:nonzero;fill:rgb(98.431373%,55.686275%,29.411765%);fill-opacity:1;" d="M 90.640625 66.535156 C 90.722656 66.742188 90.792969 66.851562 90.902344 67.015625 C 90.945312 67.765625 90.945312 68.46875 90.945312 69.148438 C 90.015625 69.542969 89.84375 69.144531 89.820312 68.417969 C 89.792969 67.683594 90.078125 66.738281 88.742188 66.539062 C 88.539062 66.464844 88.484375 66.417969 88.425781 66.375 C 89.183594 65.546875 89.917969 65.414062 90.640625 66.535156 Z M 90.640625 66.535156 "/>
<path style=" stroke:none;fill-rule:nonzero;fill:rgb(81.176471%,58.823529%,40.784314%);fill-opacity:1;" d="M 54.488281 55.046875 C 52.472656 55.226562 50.566406 55.398438 48.65625 55.570312 C 50.890625 54.535156 53.226562 54.417969 55.632812 54.90625 C 55.285156 54.949219 54.941406 54.996094 54.488281 55.046875 Z M 54.488281 55.046875 "/>
<path style=" stroke:none;fill-rule:nonzero;fill:rgb(94.117647%,52.941176%,27.45098%);fill-opacity:1;" d="M 88.332031 66.339844 C 88.484375 66.417969 88.539062 66.464844 88.640625 66.539062 C 88.503906 67.195312 88.203125 67.808594 88.167969 68.4375 C 88.121094 69.25 87.882812 69.53125 86.964844 69.164062 C 86.964844 68.339844 86.9375 67.464844 86.984375 66.59375 C 86.996094 66.347656 87.246094 65.910156 87.359375 65.921875 C 87.660156 65.945312 87.949219 66.164062 88.332031 66.339844 Z M 88.332031 66.339844 "/>
<path style=" stroke:none;fill-rule:nonzero;fill:rgb(83.921569%,61.960784%,43.529412%);fill-opacity:1;" d="M 93.964844 54.09375 C 94.203125 53.808594 94.425781 53.617188 94.648438 53.425781 C 94.746094 53.640625 94.921875 53.851562 94.925781 54.070312 C 94.945312 55.257812 93.355469 57.109375 92.347656 57.332031 C 92.839844 56.367188 93.394531 55.277344 93.964844 54.09375 Z M 93.964844 54.09375 "/>
<path style=" stroke:none;fill-rule:nonzero;fill:rgb(98.431373%,55.686275%,29.411765%);fill-opacity:1;" d="M 65.691406 66.039062 C 65.722656 67.136719 65.722656 68.140625 65.722656 69.148438 C 65.660156 69.199219 65.585938 69.300781 65.546875 69.289062 C 63.875 68.824219 65.109375 67.511719 64.800781 66.632812 C 64.585938 66.019531 64.96875 65.675781 65.691406 66.039062 Z M 65.691406 66.039062 "/>
<path style=" stroke:none;fill-rule:nonzero;fill:rgb(98.431373%,55.686275%,29.411765%);fill-opacity:1;" d="M 79.851562 67.347656 C 79.804688 67.972656 79.757812 68.597656 79.710938 69.226562 C 79.027344 69.484375 78.65625 69.359375 78.699219 68.546875 C 78.734375 67.875 78.65625 67.195312 78.730469 66.53125 C 78.757812 66.289062 79.082031 66.078125 79.273438 65.851562 C 79.425781 66.027344 79.578125 66.207031 79.703125 66.542969 C 79.734375 66.917969 79.792969 67.132812 79.851562 67.347656 Z M 79.851562 67.347656 "/>
<path style=" stroke:none;fill-rule:nonzero;fill:rgb(94.117647%,52.941176%,27.45098%);fill-opacity:1;" d="M 79.917969 67.289062 C 79.792969 67.132812 79.734375 66.917969 79.691406 66.636719 C 80.183594 66.28125 80.660156 65.996094 81.136719 65.707031 C 81.261719 65.8125 81.382812 65.917969 81.507812 66.027344 C 81.289062 66.28125 81.101562 66.578125 80.84375 66.785156 C 80.59375 66.980469 80.273438 67.082031 79.917969 67.289062 Z M 79.917969 67.289062 "/>
<path style=" stroke:none;fill-rule:nonzero;fill:rgb(97.647059%,49.411765%,6.27451%);fill-opacity:1;" d="M 43.195312 62.167969 C 43.160156 62.171875 43.140625 62.1875 43.121094 62.203125 C 43.148438 62.195312 43.179688 62.1875 43.195312 62.167969 Z M 43.195312 62.167969 "/>
<path style=" stroke:none;fill-rule:nonzero;fill:rgb(49.803922%,22.745098%,7.058824%);fill-opacity:1;" d="M 75.078125 66.589844 C 75.589844 66.664062 76.214844 66.652344 76.375 66.917969 C 76.609375 67.308594 76.519531 67.898438 76.566406 68.40625 C 75.988281 68.386719 75.261719 68.582031 74.863281 68.308594 C 74.210938 67.859375 74.355469 67.152344 75.078125 66.589844 Z M 75.078125 66.589844 "/>
<path style=" stroke:none;fill-rule:nonzero;fill:rgb(49.803922%,22.745098%,7.058824%);fill-opacity:1;" d="M 55.898438 67.546875 C 56.058594 66.585938 56.675781 66.316406 57.378906 66.578125 C 57.730469 66.707031 58.136719 67.296875 58.117188 67.65625 C 58.09375 68.023438 57.640625 68.558594 57.273438 68.667969 C 56.519531 68.886719 55.988281 68.484375 55.898438 67.546875 Z M 55.898438 67.546875 "/>
</g>
</svg>
